<svg id="svg" version="1.1" xmlns="http://www.w3.org/2000/svg" xmlns:xlink="http://www.w3.org/1999/xlink" width="400" height="400" viewBox="0, 0, 400,400"><g id="svgg"><path id="path0" d="M151.000 81.664 C 147.199 82.685,141.333 85.903,141.333 86.969 C 141.333 87.118,145.013 89.447,149.511 92.143 L 157.690 97.046 159.388 96.482 C 167.746 93.706,175.937 105.080,168.343 108.917 C 163.290 111.469,155.696 107.108,155.656 101.630 L 155.646 100.167 147.154 95.099 L 138.663 90.030 137.829 91.675 C 129.935 107.253,148.787 128.501,169.667 127.561 C 198.525 126.262,196.060 90.942,166.498 82.153 C 162.280 80.899,154.738 80.661,151.000 81.664 M211.254 85.678 C 192.543 88.828,196.212 114.475,216.833 124.672 C 237.482 134.881,252.166 118.139,239.000 99.398 C 236.708 96.134,236.957 96.111,232.265 100.030 C 230.011 101.913,228.110 103.495,228.042 103.546 C 227.973 103.597,228.160 104.248,228.458 104.993 C 230.874 111.030,224.240 114.023,218.888 109.312 C 213.131 104.245,216.572 96.961,223.284 100.006 C 224.989 100.780,224.468 101.038,229.584 96.886 C 234.245 93.104,234.185 93.508,230.445 91.006 C 225.194 87.494,217.303 84.923,213.167 85.375 C 212.983 85.395,212.123 85.531,211.254 85.678 M198.019 116.234 C 197.947 125.260,191.894 132.692,183.000 134.675 C 180.026 135.338,180.032 135.387,183.167 136.007 C 194.342 138.215,204.019 146.322,208.470 157.204 L 209.167 158.907 209.167 154.370 C 209.167 143.757,216.040 135.220,224.785 134.970 C 225.362 134.954,224.633 134.729,223.167 134.471 C 213.027 132.687,203.106 124.983,198.828 115.570 L 198.038 113.833 198.019 116.234 M229.313 138.999 C 214.238 141.395,209.582 160.305,220.095 176.434 C 229.823 191.358,248.001 196.694,257.932 187.540 C 259.440 186.150,261.333 183.647,261.333 183.043 C 261.333 182.858,257.890 180.085,253.682 176.881 L 246.031 171.056 244.779 171.695 C 240.011 174.125,233.263 168.867,233.192 162.667 C 233.081 153.049,246.085 156.000,247.580 165.931 L 247.833 167.615 255.329 173.295 C 259.451 176.419,262.931 178.869,263.062 178.738 C 263.708 178.091,264.114 172.288,263.720 169.330 C 261.333 151.401,244.522 136.581,229.313 138.999 M166.447 140.470 C 148.254 143.951,139.371 162.879,147.645 180.534 C 150.014 185.589,154.264 190.990,155.081 189.983 C 155.311 189.699,158.350 185.969,161.833 181.693 C 165.317 177.417,168.136 173.750,168.098 173.543 C 168.061 173.336,167.708 172.267,167.313 171.167 C 164.117 162.252,175.140 156.458,181.719 163.595 C 188.223 170.651,182.220 180.353,173.029 177.639 C 172.520 177.489,159.243 193.897,159.427 194.449 C 159.616 195.014,163.736 197.311,166.411 198.343 C 181.045 203.987,195.973 198.925,202.290 186.176 C 213.228 164.103,191.009 135.769,166.447 140.470 " stroke="none" fill="#fb334c" fill-rule="evenodd"></path><path id="path1" d="M187.500 223.802 C 182.856 224.949,179.962 228.410,179.470 233.404 L 179.247 235.667 176.457 235.667 L 173.667 235.667 173.667 238.167 L 173.667 240.667 176.500 240.667 L 179.333 240.667 179.333 251.667 L 179.333 262.667 182.500 262.667 L 185.667 262.667 185.667 251.667 L 185.667 240.667 189.667 240.667 L 193.667 240.667 193.667 238.167 L 193.667 235.667 189.667 235.667 L 185.667 235.667 185.667 233.987 C 185.667 228.865,190.714 226.766,195.230 230.010 C 196.043 230.593,196.783 230.995,196.875 230.903 C 197.786 229.992,199.233 227.114,198.951 226.774 C 196.854 224.247,191.412 222.835,187.500 223.802 M261.667 226.155 L 261.667 228.643 265.083 228.738 L 268.500 228.833 268.500 243.333 L 268.500 257.833 264.917 257.928 L 261.333 258.023 261.333 260.511 L 261.333 263.000 271.833 263.000 L 282.333 263.000 282.333 260.500 L 282.333 258.000 278.667 258.000 L 275.000 258.000 275.000 240.833 L 275.000 223.667 268.333 223.667 L 261.667 223.667 261.667 226.155 M98.368 226.173 C 89.576 228.641,84.911 239.939,87.788 251.796 C 90.591 263.348,102.552 267.498,110.417 259.648 C 113.175 256.894,113.176 256.844,110.435 255.043 L 108.218 253.586 107.544 254.543 C 100.039 265.199,90.042 251.479,94.663 236.867 C 96.874 229.880,104.994 228.624,107.987 234.806 L 108.700 236.280 110.994 235.267 C 113.595 234.119,113.617 233.988,111.697 231.225 C 108.590 226.753,103.362 224.771,98.368 226.173 M125.344 235.846 C 118.840 237.668,114.809 244.580,115.953 251.949 C 118.432 267.907,138.976 267.611,140.988 251.588 C 142.246 241.568,134.118 233.389,125.344 235.846 M157.588 235.803 C 156.720 236.037,155.257 236.695,154.338 237.267 L 152.667 238.306 152.667 236.986 L 152.667 235.667 149.500 235.667 L 146.333 235.667 146.333 249.167 L 146.333 262.667 149.500 262.667 L 152.667 262.667 152.668 253.250 C 152.669 241.640,153.068 240.634,157.689 240.564 C 161.792 240.502,162.145 241.467,162.269 253.068 L 162.371 262.667 165.519 262.667 L 168.667 262.667 168.667 253.728 C 168.667 242.102,168.339 240.308,165.719 237.573 C 163.786 235.556,160.868 234.920,157.588 235.803 M212.118 235.660 C 200.400 238.150,198.527 257.474,209.503 262.633 C 214.370 264.921,220.167 264.118,224.161 260.602 L 225.714 259.235 223.955 257.454 L 222.196 255.673 221.348 256.465 C 216.642 260.859,210.107 258.910,208.710 252.696 L 208.404 251.333 217.187 251.333 L 225.970 251.333 226.206 250.083 C 227.806 241.608,220.298 233.921,212.118 235.660 M245.863 235.687 C 244.112 236.124,242.550 237.129,241.337 238.601 L 240.333 239.819 240.333 237.743 L 240.333 235.667 237.167 235.667 L 234.000 235.667 234.000 249.167 L 234.000 262.667 237.167 262.667 L 240.333 262.667 240.335 254.917 C 240.337 246.400,240.515 245.242,242.099 243.439 C 244.891 240.258,249.480 240.157,252.017 243.220 L 252.820 244.189 254.224 241.211 L 255.629 238.233 254.830 237.605 C 252.636 235.879,248.575 235.010,245.863 235.687 M288.000 235.871 C 288.000 235.997,290.249 241.993,292.998 249.195 C 296.181 257.532,297.917 262.509,297.777 262.894 C 296.217 267.207,293.088 268.712,290.225 266.527 L 288.732 265.387 287.734 267.610 C 286.591 270.156,286.639 270.304,289.017 271.508 C 293.672 273.868,298.837 272.168,301.417 267.427 C 303.609 263.399,312.000 238.968,312.000 236.613 L 312.000 235.667 309.000 235.667 L 306.000 235.667 306.000 237.280 C 306.000 239.740,302.611 251.110,301.041 253.914 C 300.708 254.510,300.820 254.784,296.858 243.667 L 294.066 235.833 291.033 235.737 C 289.365 235.685,288.000 235.745,288.000 235.871 M129.833 240.700 C 133.161 241.604,134.500 244.130,134.500 249.500 C 134.500 255.516,132.785 258.269,128.835 258.597 C 120.265 259.308,119.790 242.040,128.333 240.370 C 128.425 240.352,129.100 240.500,129.833 240.700 M217.704 241.528 C 218.942 242.705,219.533 243.784,219.842 245.428 L 220.074 246.667 214.344 246.667 L 208.614 246.667 208.834 245.583 C 209.757 241.042,214.778 238.746,217.704 241.528 " stroke="none" fill="#FFFFFF" fill-rule="evenodd"></path><path id="path2" d="M261.400 226.250 L 261.333 229.000 264.833 229.000 L 268.333 229.000 268.333 243.333 L 268.333 257.667 264.667 257.667 L 261.000 257.667 261.067 260.417 L 261.134 263.167 261.248 260.594 L 261.361 258.022 264.930 257.928 L 268.500 257.833 268.500 243.333 L 268.500 228.833 265.097 228.738 L 261.694 228.644 261.581 226.072 L 261.467 223.500 261.400 226.250 M275.080 240.750 L 275.000 258.000 278.750 257.929 L 282.500 257.858 278.920 257.751 L 275.339 257.644 275.250 240.572 L 275.160 223.500 275.080 240.750 M109.000 228.104 C 109.000 228.162,109.487 228.649,110.083 229.188 L 111.167 230.167 110.188 229.083 C 109.275 228.074,109.000 227.847,109.000 228.104 M195.909 231.020 C 196.002 231.376,196.285 231.667,196.539 231.667 C 197.192 231.667,197.110 231.229,196.370 230.767 C 195.823 230.425,195.762 230.459,195.909 231.020 M146.152 249.167 C 146.152 256.683,146.196 259.806,146.250 256.106 C 146.303 252.405,146.303 246.255,146.250 242.439 C 146.196 238.623,146.152 241.650,146.152 249.167 M173.400 238.250 L 173.333 241.000 176.417 240.931 L 179.500 240.863 176.597 240.752 L 173.694 240.641 173.581 238.071 L 173.467 235.500 173.400 238.250 M193.667 238.156 L 193.667 240.646 189.583 240.751 L 185.500 240.856 189.750 240.928 L 194.000 241.000 194.000 238.333 C 194.000 236.867,193.925 235.667,193.833 235.667 C 193.742 235.667,193.667 236.787,193.667 238.156 M233.819 249.167 C 233.819 256.683,233.863 259.806,233.916 256.106 C 233.970 252.405,233.970 246.255,233.916 242.439 C 233.863 238.623,233.819 241.650,233.819 249.167 M240.333 237.667 C 240.333 238.828,240.437 239.674,240.563 239.548 C 240.800 239.312,240.719 235.944,240.471 235.694 C 240.395 235.618,240.333 236.506,240.333 237.667 M165.000 236.771 C 165.000 236.828,165.487 237.316,166.083 237.854 L 167.167 238.833 166.188 237.750 C 165.275 236.740,165.000 236.513,165.000 236.771 M205.982 238.917 L 204.833 240.167 206.083 239.018 C 207.247 237.949,207.487 237.667,207.232 237.667 C 207.176 237.667,206.614 238.229,205.982 238.917 M93.744 241.667 C 93.744 242.308,93.813 242.571,93.896 242.250 C 93.980 241.929,93.980 241.404,93.896 241.083 C 93.813 240.762,93.744 241.025,93.744 241.667 M162.147 253.500 C 162.147 258.633,162.193 260.687,162.249 258.063 C 162.306 255.440,162.306 251.240,162.249 248.730 C 162.193 246.220,162.146 248.367,162.147 253.500 M87.077 248.333 C 87.077 248.975,87.146 249.237,87.230 248.917 C 87.314 248.596,87.314 248.071,87.230 247.750 C 87.146 247.429,87.077 247.692,87.077 248.333 M202.112 249.667 C 202.112 251.042,202.171 251.604,202.243 250.917 C 202.315 250.229,202.315 249.104,202.243 248.417 C 202.171 247.729,202.112 248.292,202.112 249.667 M141.077 251.000 C 141.077 251.642,141.146 251.904,141.230 251.583 C 141.314 251.262,141.314 250.737,141.230 250.417 C 141.146 250.096,141.077 250.358,141.077 251.000 M97.333 256.500 C 97.955 257.142,98.539 257.667,98.631 257.667 C 98.722 257.667,98.289 257.142,97.667 256.500 C 97.045 255.858,96.461 255.333,96.369 255.333 C 96.278 255.333,96.711 255.858,97.333 256.500 M223.833 257.333 C 224.736 258.250,225.550 259.000,225.642 259.000 C 225.733 259.000,225.070 258.250,224.167 257.333 C 223.264 256.417,222.450 255.667,222.358 255.667 C 222.267 255.667,222.930 256.417,223.833 257.333 M110.315 259.917 L 109.167 261.167 110.417 260.018 C 111.580 258.949,111.820 258.667,111.565 258.667 C 111.510 258.667,110.947 259.229,110.315 259.917 M91.000 259.104 C 91.000 259.162,91.487 259.649,92.083 260.188 L 93.167 261.167 92.188 260.083 C 91.275 259.074,91.000 258.847,91.000 259.104 M127.589 263.908 C 128.188 263.982,129.088 263.981,129.589 263.905 C 130.090 263.829,129.600 263.768,128.500 263.770 C 127.400 263.772,126.990 263.834,127.589 263.908 M299.315 270.250 L 298.167 271.500 299.417 270.351 C 300.580 269.282,300.820 269.000,300.565 269.000 C 300.510 269.000,299.947 269.563,299.315 270.250 " stroke="none" fill="#5c748c" fill-rule="evenodd"></path><path id="path3" d="M156.259 80.911 C 157.043 80.982,158.243 80.981,158.925 80.909 C 159.608 80.837,158.967 80.780,157.500 80.781 C 156.033 80.782,155.475 80.841,156.259 80.911 M215.254 85.569 C 215.669 85.649,216.269 85.646,216.587 85.562 C 216.906 85.479,216.567 85.414,215.833 85.417 C 215.100 85.421,214.839 85.489,215.254 85.569 M181.833 91.000 C 182.736 91.917,183.550 92.667,183.642 92.667 C 183.733 92.667,183.070 91.917,182.167 91.000 C 181.264 90.083,180.450 89.333,180.358 89.333 C 180.267 89.333,180.930 90.083,181.833 91.000 M161.088 96.239 C 161.595 96.316,162.345 96.314,162.755 96.235 C 163.165 96.156,162.750 96.093,161.833 96.095 C 160.917 96.098,160.581 96.163,161.088 96.239 M218.333 108.833 C 218.955 109.475,219.539 110.000,219.631 110.000 C 219.722 110.000,219.289 109.475,218.667 108.833 C 218.045 108.192,217.461 107.667,217.369 107.667 C 217.278 107.667,217.711 108.192,218.333 108.833 M244.100 113.667 C 244.100 114.675,244.162 115.087,244.239 114.583 C 244.315 114.079,244.315 113.254,244.239 112.750 C 244.162 112.246,244.100 112.658,244.100 113.667 M197.690 114.250 C 197.711 115.062,197.746 115.091,198.000 114.500 C 198.391 113.590,198.391 113.333,198.000 113.333 C 197.817 113.333,197.677 113.746,197.690 114.250 M197.744 118.333 C 197.744 118.975,197.813 119.237,197.896 118.917 C 197.980 118.596,197.980 118.071,197.896 117.750 C 197.813 117.429,197.744 117.692,197.744 118.333 M185.000 121.500 C 184.190 122.325,183.603 123.000,183.695 123.000 C 183.786 123.000,184.524 122.325,185.333 121.500 C 186.143 120.675,186.730 120.000,186.639 120.000 C 186.547 120.000,185.810 120.675,185.000 121.500 M205.500 125.000 C 206.773 126.283,207.890 127.333,207.982 127.333 C 208.074 127.333,207.107 126.283,205.833 125.000 C 204.560 123.717,203.443 122.667,203.351 122.667 C 203.260 122.667,204.227 123.717,205.500 125.000 M227.417 127.909 C 228.104 127.981,229.229 127.981,229.917 127.909 C 230.604 127.838,230.042 127.779,228.667 127.779 C 227.292 127.779,226.729 127.838,227.417 127.909 M192.484 129.417 L 191.167 130.833 192.583 129.516 C 193.901 128.290,194.153 128.000,193.901 128.000 C 193.847 128.000,193.209 128.637,192.484 129.417 M178.167 135.333 C 177.269 135.562,177.327 135.592,178.730 135.627 C 179.590 135.649,180.387 135.517,180.500 135.333 C 180.735 134.954,179.658 134.954,178.167 135.333 M170.587 139.902 C 171.002 139.982,171.602 139.979,171.921 139.896 C 172.239 139.812,171.900 139.747,171.167 139.751 C 170.433 139.754,170.173 139.823,170.587 139.902 M250.667 145.758 C 250.667 145.809,251.829 146.971,253.250 148.342 L 255.833 150.833 253.342 148.250 C 251.027 145.851,250.667 145.515,250.667 145.758 M201.000 146.104 C 201.000 146.162,201.487 146.649,202.083 147.188 L 203.167 148.167 202.188 147.083 C 201.275 146.074,201.000 145.847,201.000 146.104 M209.039 157.056 C 209.017 157.362,208.914 157.887,208.808 158.223 C 208.626 158.801,208.636 158.802,208.997 158.240 C 209.207 157.913,209.310 157.388,209.228 157.073 C 209.092 156.557,209.074 156.555,209.039 157.056 M237.921 156.902 C 238.335 156.982,238.935 156.979,239.254 156.896 C 239.573 156.812,239.233 156.747,238.500 156.751 C 237.767 156.754,237.506 156.823,237.921 156.902 M209.168 159.708 C 209.515 160.851,209.947 161.205,209.752 160.187 C 209.661 159.712,209.439 159.232,209.258 159.120 C 209.053 158.993,209.019 159.215,209.168 159.708 M233.084 162.500 C 233.088 163.233,233.156 163.494,233.236 163.079 C 233.315 162.665,233.312 162.065,233.229 161.746 C 233.146 161.427,233.080 161.767,233.084 162.500 M144.429 165.167 C 144.431 166.083,144.496 166.419,144.573 165.912 C 144.649 165.405,144.647 164.655,144.568 164.245 C 144.489 163.835,144.426 164.250,144.429 165.167 M247.417 166.500 C 247.421 167.233,247.489 167.494,247.569 167.079 C 247.649 166.665,247.646 166.065,247.562 165.746 C 247.479 165.427,247.414 165.767,247.417 166.500 M166.762 168.167 C 166.765 169.083,166.829 169.419,166.906 168.912 C 166.982 168.405,166.980 167.655,166.901 167.245 C 166.822 166.835,166.760 167.250,166.762 168.167 M144.429 168.500 C 144.431 169.417,144.496 169.752,144.573 169.245 C 144.649 168.739,144.647 167.989,144.568 167.579 C 144.489 167.169,144.426 167.583,144.429 168.500 M205.084 171.500 C 205.088 172.233,205.156 172.494,205.236 172.079 C 205.315 171.665,205.312 171.065,205.229 170.746 C 205.146 170.427,205.080 170.767,205.084 171.500 M205.084 175.833 C 205.088 176.567,205.156 176.827,205.236 176.413 C 205.315 175.998,205.312 175.398,205.229 175.079 C 205.146 174.761,205.080 175.100,205.084 175.833 M224.500 182.333 C 225.589 183.433,226.554 184.333,226.646 184.333 C 226.737 184.333,225.922 183.433,224.833 182.333 C 223.745 181.233,222.779 180.333,222.688 180.333 C 222.596 180.333,223.411 181.233,224.500 182.333 M258.315 187.250 L 257.167 188.500 258.417 187.351 C 259.580 186.282,259.820 186.000,259.565 186.000 C 259.510 186.000,258.947 186.563,258.315 187.250 M244.592 192.244 C 245.376 192.315,246.576 192.314,247.259 192.242 C 247.941 192.171,247.300 192.113,245.833 192.114 C 244.367 192.115,243.808 192.174,244.592 192.244 M176.750 200.909 C 177.438 200.981,178.563 200.981,179.250 200.909 C 179.938 200.838,179.375 200.779,178.000 200.779 C 176.625 200.779,176.063 200.838,176.750 200.909 M168.812 254.333 C 168.812 259.008,168.858 260.921,168.916 258.583 C 168.973 256.246,168.973 252.421,168.916 250.083 C 168.858 247.746,168.812 249.658,168.812 254.333 M282.450 260.333 C 282.450 261.892,282.507 262.529,282.577 261.750 C 282.648 260.971,282.648 259.696,282.577 258.917 C 282.507 258.137,282.450 258.775,282.450 260.333 M180.750 262.912 C 181.621 262.980,183.046 262.980,183.917 262.912 C 184.787 262.843,184.075 262.787,182.333 262.787 C 180.592 262.787,179.879 262.843,180.750 262.912 " stroke="none" fill="#44345c" fill-rule="evenodd"></path></g></svg>
